# Blender 5.0.0
# www.blender.org
mtllib cactus1.mtl
o Cylinder
v 0.000000 0.008711 -0.579198
v 0.000000 3.900756 -0.768636
v 0.409555 0.008711 -0.409555
v 0.543508 3.900756 -0.543508
v 0.579198 0.008711 0.000000
v 0.768636 3.900756 0.000000
v 0.409555 0.008711 0.409555
v 0.543508 3.900756 0.543508
v 0.000000 0.008711 0.579198
v 0.000000 3.900756 0.768636
v -0.409555 0.008711 0.409555
v -0.543508 3.900756 0.543508
v -0.579198 0.008711 0.000000
v -0.768636 3.900756 0.000000
v -0.409555 0.008711 -0.409555
v -0.543508 3.900756 -0.543508
v 0.000000 1.053497 -0.626558
v -0.443043 1.053497 -0.443043
v -0.626558 1.053497 0.000000
v -0.443043 1.053497 0.443043
v 0.000000 1.053497 0.626558
v 0.443043 1.053497 0.443043
v 0.626558 1.053497 0.000000
v 0.443043 1.053497 -0.443043
v 0.000000 2.098283 -0.673917
v 0.476531 2.098283 -0.476531
v 0.673917 2.098283 0.000000
v 0.476531 2.098283 0.476531
v 0.000000 2.098283 0.673917
v -0.476531 2.098283 0.476531
v -0.673917 2.098283 0.000000
v -0.476531 2.098283 -0.476531
v 0.000000 2.863926 -0.721277
v 0.510020 2.863926 -0.510020
v 0.721277 2.863926 0.000000
v 0.510020 2.863926 0.510020
v 0.000000 2.863926 0.721277
v -0.510020 2.863926 0.510020
v -0.721277 2.863926 0.000000
v -0.510020 2.863926 -0.510020
v 0.000000 4.283486 -0.411569
v 0.000000 4.386714 -0.167753
v 0.118620 4.386714 -0.118620
v 0.291023 4.283486 -0.291023
v 0.167753 4.386714 0.000000
v 0.411569 4.283486 0.000000
v 0.118620 4.386714 0.118620
v 0.291023 4.283486 0.291023
v 0.000000 4.386714 0.167753
v 0.000000 4.283486 0.411569
v -0.118620 4.386714 0.118620
v -0.291023 4.283486 0.291023
v -0.167753 4.386714 0.000000
v -0.411569 4.283486 0.000000
v -0.118620 4.386714 -0.118620
v -0.291023 4.283486 -0.291023
vn -0.3823 -0.0418 0.9231
vn -0.0000 -1.0000 -0.0000
vn -0.3823 -0.0422 -0.9231
vn -0.9231 -0.0422 -0.3823
vn -0.9231 -0.0422 0.3823
vn -0.3823 -0.0422 0.9231
vn 0.3823 -0.0422 0.9231
vn 0.9231 -0.0422 0.3823
vn 0.9231 -0.0422 -0.3823
vn 0.3823 -0.0418 0.9231
vn -0.9231 -0.0418 0.3823
vn -0.9231 -0.0418 -0.3823
vn -0.3823 -0.0418 -0.9231
vn 0.3823 -0.0418 -0.9231
vn 0.9231 -0.0418 -0.3823
vn 0.9231 -0.0418 0.3823
vn 0.3823 -0.0422 -0.9231
vn 0.3821 -0.0571 -0.9224
vn 0.9224 -0.0571 -0.3821
vn 0.9224 -0.0571 0.3821
vn 0.3821 -0.0571 0.9224
vn -0.3821 -0.0571 0.9224
vn -0.9224 -0.0571 0.3821
vn -0.9224 -0.0571 -0.3821
vn -0.3821 -0.0571 -0.9224
vn 0.1594 0.9091 -0.3849
vn 0.3849 0.9091 -0.1594
vn 0.3849 0.9091 0.1594
vn 0.1594 0.9091 0.3849
vn -0.1594 0.9091 0.3849
vn -0.3849 0.9091 0.1594
vn -0.3849 0.9091 -0.1594
vn -0.1594 0.9091 -0.3849
vn -0.0000 1.0000 -0.0000
vn -0.2899 0.6529 -0.6998
vn 0.2899 0.6529 -0.6998
vn 0.6998 0.6529 -0.2899
vn 0.6998 0.6529 0.2899
vn 0.2899 0.6529 0.6998
vn -0.2899 0.6529 0.6998
vn -0.6998 0.6529 0.2899
vn -0.6998 0.6529 -0.2899
vt 0.500000 0.500000
vt 0.500000 0.625000
vt 0.375000 0.625000
vt 0.375000 0.500000
vt 0.750000 0.490000
vt 0.919706 0.419706
vt 0.990000 0.250000
vt 0.919706 0.080294
vt 0.750000 0.010000
vt 0.580294 0.080294
vt 0.510000 0.250000
vt 0.580294 0.419706
vt 0.125000 0.875000
vt 0.125000 1.000000
vt 0.000000 1.000000
vt 0.000000 0.875000
vt 0.250000 0.875000
vt 0.250000 1.000000
vt 0.375000 0.875000
vt 0.375000 1.000000
vt 0.500000 0.875000
vt 0.500000 1.000000
vt 0.625000 0.875000
vt 0.625000 1.000000
vt 0.750000 0.875000
vt 0.750000 1.000000
vt 0.875000 0.875000
vt 0.875000 1.000000
vt 0.625000 0.500000
vt 0.625000 0.625000
vt 0.250000 0.625000
vt 0.250000 0.500000
vt 0.125000 0.625000
vt 0.125000 0.500000
vt 0.000000 0.625000
vt 0.000000 0.500000
vt 1.000000 0.500000
vt 1.000000 0.625000
vt 0.875000 0.625000
vt 0.875000 0.500000
vt 0.750000 0.625000
vt 0.750000 0.500000
vt 1.000000 0.875000
vt 1.000000 1.000000
vt 1.000000 0.750000
vt 0.875000 0.750000
vt 0.750000 0.750000
vt 0.625000 0.750000
vt 0.500000 0.750000
vt 0.375000 0.750000
vt 0.250000 0.750000
vt 0.125000 0.750000
vt 0.000000 0.750000
vt 0.311133 1.000000
vt 0.563867 1.000000
vt 0.619552 1.000000
vt 0.561569 1.000000
vt 0.480454 1.000000
vt 0.394546 1.000000
vt 0.313431 1.000000
vt 0.255448 1.000000
s 0
f 9/1/1 21/2/1 20/3/1 11/4/1
f 1/5/2 3/6/2 5/7/2 7/8/2 9/9/2 11/10/2 13/11/2 15/12/2
f 40/13/3 16/14/3 2/15/3 33/16/3
f 39/17/4 14/18/4 16/14/4 40/13/4
f 38/19/5 12/20/5 14/18/5 39/17/5
f 37/21/6 10/22/6 12/20/6 38/19/6
f 36/23/7 8/24/7 10/22/7 37/21/7
f 35/25/8 6/26/8 8/24/8 36/23/8
f 34/27/9 4/28/9 6/26/9 35/25/9
f 7/29/10 22/30/10 21/2/10 9/1/10
f 11/4/11 20/3/11 19/31/11 13/32/11
f 13/32/12 19/31/12 18/33/12 15/34/12
f 15/34/13 18/33/13 17/35/13 1/36/13
f 1/37/14 17/38/14 24/39/14 3/40/14
f 3/40/15 24/39/15 23/41/15 5/42/15
f 5/42/16 23/41/16 22/30/16 7/29/16
f 33/43/17 2/44/17 4/28/17 34/27/17
f 17/38/14 25/45/14 26/46/14 24/39/14
f 24/39/15 26/46/15 27/47/15 23/41/15
f 23/41/16 27/47/16 28/48/16 22/30/16
f 22/30/10 28/48/10 29/49/10 21/2/10
f 21/2/1 29/49/1 30/50/1 20/3/1
f 20/3/11 30/50/11 31/51/11 19/31/11
f 19/31/12 31/51/12 32/52/12 18/33/12
f 18/33/13 32/52/13 25/53/13 17/35/13
f 25/45/18 33/43/18 34/27/18 26/46/18
f 26/46/19 34/27/19 35/25/19 27/47/19
f 27/47/20 35/25/20 36/23/20 28/48/20
f 28/48/21 36/23/21 37/21/21 29/49/21
f 29/49/22 37/21/22 38/19/22 30/50/22
f 30/50/23 38/19/23 39/17/23 31/51/23
f 31/51/24 39/17/24 40/13/24 32/52/24
f 32/52/25 40/13/25 33/16/25 25/53/25
f 44/28/26 41/15/26 42/54/26 43/55/26
f 46/26/27 44/28/27 43/55/27 45/56/27
f 48/24/28 46/26/28 45/56/28 47/57/28
f 50/22/29 48/24/29 47/57/29 49/58/29
f 52/20/30 50/22/30 49/58/30 51/59/30
f 54/18/31 52/20/31 51/59/31 53/60/31
f 56/14/32 54/18/32 53/60/32 55/61/32
f 41/15/33 56/14/33 55/61/33 42/54/33
f 43/55/34 42/54/34 55/61/34 53/60/34 51/59/34 49/58/34 47/57/34 45/56/34
f 2/15/35 16/14/35 56/14/35 41/15/35
f 4/28/36 2/44/36 41/44/36 44/28/36
f 6/26/37 4/28/37 44/28/37 46/26/37
f 8/24/38 6/26/38 46/26/38 48/24/38
f 10/22/39 8/24/39 48/24/39 50/22/39
f 12/20/40 10/22/40 50/22/40 52/20/40
f 14/18/41 12/20/41 52/20/41 54/18/41
f 16/14/42 14/18/42 54/18/42 56/14/42
o Cylinder.001
v 0.028310 2.561469 0.710814
v -0.011265 3.355611 0.958427
v 0.202465 2.483651 0.816001
v 0.159816 3.330897 1.106680
v 0.211424 2.358879 0.953875
v 0.187884 3.283224 1.345999
v 0.063379 2.224817 1.051718
v 0.056498 3.240520 1.536192
v -0.156338 2.200175 1.053915
v -0.157379 3.227799 1.565848
v -0.343033 2.279046 0.961027
v -0.328460 3.252514 1.417594
v -0.373643 2.400640 0.808182
v -0.356528 3.300186 1.178276
v -0.209151 2.551160 0.723570
v -0.225141 3.342891 0.988083
v -0.058625 3.464106 1.177170
v 0.011546 3.453969 1.237978
v 0.023058 3.434416 1.336136
v -0.030831 3.416900 1.414145
v -0.118554 3.411683 1.426309
v -0.188725 3.421820 1.365502
v -0.200237 3.441373 1.267344
v -0.146348 3.458888 1.189334
v -0.001330 2.699037 0.820121
v 0.148668 2.677368 0.950105
v 0.173278 2.635570 1.159932
v 0.058082 2.598129 1.326688
v -0.129438 2.586975 1.352690
v -0.279436 2.608644 1.222705
v -0.304046 2.650442 1.012878
v -0.188850 2.687884 0.846122
v -0.005097 2.986203 0.878134
v 0.155442 2.963011 1.017253
v 0.181781 2.918276 1.241826
v 0.058491 2.878203 1.420300
v -0.142208 2.866266 1.448130
v -0.302747 2.889458 1.309010
v -0.329086 2.934193 1.084437
v -0.205796 2.974266 0.905963
v 0.145938 2.444511 0.574647
v 0.152314 2.246416 0.575250
v 0.020732 2.099964 0.567585
v -0.172500 2.092643 0.558200
v -0.317180 2.215437 0.546402
v -0.330920 2.389769 0.530982
v -0.192610 2.552311 0.545946
v 0.006082 2.563158 0.551353
v 0.041866 2.389256 0.211294
v 0.044885 2.304876 0.210679
v -0.010687 2.243025 0.207442
v -0.092296 2.239933 0.203478
v -0.152136 2.297411 0.201111
v -0.155155 2.381791 0.201726
v -0.099583 2.443643 0.204963
v -0.017974 2.446735 0.208926
v 0.175760 2.454179 0.372585
v 0.183119 2.248455 0.371086
v 0.047630 2.097654 0.363193
v -0.151339 2.090115 0.353530
v -0.297235 2.230253 0.347757
v -0.304594 2.435977 0.349257
v -0.169105 2.586778 0.357150
v 0.029864 2.594316 0.366813
vn -0.1163 0.8795 -0.4614
vn -0.1465 0.2078 -0.9672
vn -0.8284 0.0800 -0.5543
vn -0.9904 -0.0990 0.0964
vn -0.6536 -0.2590 0.7111
vn 0.1485 -0.3005 0.9421
vn 0.8284 -0.1665 0.5349
vn 0.9934 0.0158 -0.1134
vn 0.4106 0.8491 -0.3323
vn 0.5565 0.6412 0.5284
vn -0.7194 0.6602 0.2159
vn 0.0760 0.5925 0.8020
vn -0.5797 0.7833 -0.2245
vn 0.6722 0.7372 0.0680
vn -0.4767 0.5931 0.6489
vn -0.0307 0.9796 0.1987
vn 0.6593 0.1702 -0.7324
vn 0.5901 0.5693 -0.5725
vn 0.9811 0.1933 -0.0021
vn 0.7677 -0.3473 0.5386
vn 0.1077 -0.6009 0.7920
vn -0.5821 -0.4541 0.6745
vn -0.9799 0.0772 0.1840
vn -0.7357 0.5291 -0.4229
vn -0.1018 0.6402 -0.7614
vn 0.6596 0.1571 -0.7350
vn 0.9933 0.0037 -0.1158
vn 0.8278 -0.1789 0.5317
vn 0.1487 -0.3137 0.9378
vn -0.6524 -0.2716 0.7075
vn -0.9894 -0.1110 0.0939
vn -0.8279 0.0674 -0.5568
vn -0.1461 0.1941 -0.9701
vn 0.9884 0.0333 0.1485
vn 0.7371 -0.6677 0.1045
vn 0.0371 -0.9992 0.0162
vn -0.6652 -0.7412 -0.0904
vn -0.9897 -0.0597 -0.1300
vn -0.7539 0.6557 0.0414
vn -0.0518 0.9847 0.1665
vn 0.5750 0.7964 -0.1874
vn 0.9839 -0.0289 -0.1764
vn 0.7209 -0.6853 0.1035
vn 0.0713 -0.9715 0.2261
vn -0.5480 -0.8231 0.1489
vn -0.9788 -0.1902 -0.0765
vn -0.7265 0.6784 -0.1092
vn -0.0483 0.9988 0.0092
vn 0.0482 0.0090 -0.9988
vn 0.0609 -0.7182 -0.6931
vn -0.5119 0.4966 -0.7009
vn 0.7627 0.0320 -0.6460
vn -0.4741 -0.5228 -0.7085
vn 0.5736 -0.4806 -0.6633
vn -0.7061 -0.0201 -0.7078
vn 0.0056 0.7297 -0.6838
vn 0.5352 0.5301 -0.6577
vn 0.6522 0.7391 0.1685
vt 0.000000 1.000000
vt 0.125000 1.000000
vt 0.125000 0.875000
vt 0.000000 0.875000
vt 0.250000 0.875000
vt 0.250000 1.000000
vt 0.375000 0.875000
vt 0.375000 1.000000
vt 0.500000 0.875000
vt 0.500000 1.000000
vt 0.625000 0.875000
vt 0.625000 1.000000
vt 0.750000 0.875000
vt 0.750000 1.000000
vt 0.875000 0.875000
vt 0.875000 1.000000
vt 1.000000 1.000000
vt 1.000000 0.875000
vt 1.000000 0.500000
vt 1.000000 0.750000
vt 0.875000 0.750000
vt 0.875000 0.500000
vt 0.750000 0.750000
vt 0.750000 0.500000
vt 0.625000 0.750000
vt 0.625000 0.500000
vt 0.500000 0.750000
vt 0.500000 0.500000
vt 0.375000 0.750000
vt 0.375000 0.500000
vt 0.250000 0.750000
vt 0.250000 0.500000
vt 0.125000 0.750000
vt 0.125000 0.500000
vt 0.000000 0.750000
vt 0.000000 0.500000
s 0
f 58/62/43 72/63/43 80/63/43 73/62/43
f 96/64/44 72/63/44 58/62/44 89/65/44
f 95/66/45 70/67/45 72/63/45 96/64/45
f 94/68/46 68/69/46 70/67/46 95/66/46
f 93/70/47 66/71/47 68/69/47 94/68/47
f 92/72/48 64/73/48 66/71/48 93/70/48
f 91/74/49 62/75/49 64/73/49 92/72/49
f 90/76/50 60/77/50 62/75/50 91/74/50
f 60/77/51 58/78/51 73/78/51 74/77/51
f 64/73/52 62/75/52 75/75/52 76/73/52
f 70/67/53 68/69/53 78/69/53 79/67/53
f 66/71/54 64/73/54 76/73/54 77/71/54
f 72/63/55 70/67/55 79/67/55 80/63/55
f 62/75/56 60/77/56 74/77/56 75/75/56
f 68/69/57 66/71/57 77/71/57 78/69/57
f 74/77/58 73/62/58 80/63/58 79/67/58 78/69/58 77/71/58 76/73/58 75/75/58
f 89/79/59 58/78/59 60/77/59 90/76/59
f 57/80/60 81/81/60 82/82/60 59/83/60
f 59/83/61 82/82/61 83/84/61 61/85/61
f 61/85/62 83/84/62 84/86/62 63/87/62
f 63/87/63 84/86/63 85/88/63 65/89/63
f 65/89/64 85/88/64 86/90/64 67/91/64
f 67/91/65 86/90/65 87/92/65 69/93/65
f 69/93/66 87/92/66 88/94/66 71/95/66
f 71/95/67 88/94/67 81/96/67 57/97/67
f 81/81/68 89/79/68 90/76/68 82/82/68
f 82/82/69 90/76/69 91/74/69 83/84/69
f 83/84/70 91/74/70 92/72/70 84/86/70
f 84/86/71 92/72/71 93/70/71 85/88/71
f 85/88/72 93/70/72 94/68/72 86/90/72
f 86/90/73 94/68/73 95/66/73 87/92/73
f 87/92/74 95/66/74 96/64/74 88/94/74
f 88/94/75 96/64/75 89/65/75 81/96/75
f 114/67/76 113/63/76 97/94/76 98/92/76
f 115/69/77 114/67/77 98/92/77 99/90/77
f 116/71/78 115/69/78 99/90/78 100/88/78
f 117/73/79 116/71/79 100/88/79 101/86/79
f 118/75/80 117/73/80 101/86/80 102/84/80
f 119/77/81 118/75/81 102/84/81 103/82/81
f 104/81/82 120/78/82 119/77/82 103/82/82
f 59/95/83 97/94/83 104/96/83 57/97/83
f 61/93/84 98/92/84 97/94/84 59/95/84
f 63/91/85 99/90/85 98/92/85 61/93/85
f 65/89/86 100/88/86 99/90/86 63/91/86
f 67/87/87 101/86/87 100/88/87 65/89/87
f 69/85/88 102/84/88 101/86/88 67/87/88
f 71/83/89 103/82/89 102/84/89 69/85/89
f 57/80/90 104/81/90 103/82/90 71/83/90
f 111/77/91 112/62/91 105/63/91 106/67/91 107/69/91 108/71/91 109/73/91 110/75/91
f 115/69/92 116/71/92 108/71/92 107/69/92
f 118/75/93 119/77/93 111/77/93 110/75/93
f 113/63/94 114/67/94 106/67/94 105/63/94
f 116/71/95 117/73/95 109/73/95 108/71/95
f 114/67/96 115/69/96 107/69/96 106/67/96
f 117/73/97 118/75/97 110/75/97 109/73/97
f 119/77/98 120/78/98 112/78/98 111/77/98
f 120/62/99 113/63/99 105/63/99 112/62/99
f 113/63/100 120/62/100 104/96/100 97/94/100
o Cylinder.002
v -0.028310 1.910880 -0.846246
v 0.011265 2.705023 -1.093859
v -0.202465 1.833063 -0.951433
v -0.159816 2.680308 -1.242112
v -0.211425 1.708291 -1.089307
v -0.187884 2.632636 -1.481431
v -0.063379 1.574228 -1.187150
v -0.056498 2.589932 -1.671624
v 0.156338 1.549587 -1.189347
v 0.157378 2.577211 -1.701280
v 0.343033 1.628458 -1.096459
v 0.328459 2.601925 -1.553026
v 0.373643 1.750051 -0.943614
v 0.356527 2.649598 -1.313708
v 0.209151 1.900571 -0.859002
v 0.225141 2.692302 -1.123515
v 0.058625 2.813518 -1.312602
v -0.011546 2.803380 -1.373410
v -0.023058 2.783828 -1.471568
v 0.030831 2.766312 -1.549577
v 0.118554 2.761095 -1.561741
v 0.188724 2.771231 -1.500934
v 0.200237 2.790784 -1.402776
v 0.146348 2.808300 -1.324766
v 0.001330 2.048448 -0.955553
v -0.148668 2.026779 -1.085537
v -0.173278 1.984982 -1.295364
v -0.058082 1.947540 -1.462120
v 0.129438 1.936387 -1.488121
v 0.279436 1.958056 -1.358137
v 0.304046 1.999854 -1.148310
v 0.188850 2.037295 -0.981554
v 0.005097 2.335614 -1.013566
v -0.155443 2.312423 -1.152685
v -0.181781 2.267687 -1.377258
v -0.058491 2.227614 -1.555732
v 0.142208 2.215678 -1.583561
v 0.302747 2.238869 -1.444442
v 0.329086 2.283604 -1.219869
v 0.205795 2.323677 -1.041395
v -0.145939 1.793922 -0.710079
v -0.152314 1.595827 -0.710682
v -0.020732 1.449376 -0.703017
v 0.172500 1.442054 -0.693632
v 0.317180 1.564849 -0.681834
v 0.330920 1.739180 -0.666415
v 0.192610 1.901722 -0.681378
v -0.006082 1.912569 -0.686785
v -0.041866 1.738667 -0.346726
v -0.044885 1.654288 -0.346111
v 0.010687 1.592436 -0.342874
v 0.092296 1.589344 -0.338910
v 0.152136 1.646823 -0.336543
v 0.155155 1.731202 -0.337158
v 0.099583 1.793054 -0.340395
v 0.017974 1.796146 -0.344358
v -0.175760 1.803590 -0.508017
v -0.183119 1.597866 -0.506518
v -0.047630 1.447066 -0.498625
v 0.151339 1.439527 -0.488962
v 0.297235 1.579665 -0.483189
v 0.304594 1.785389 -0.484689
v 0.169105 1.936189 -0.492582
v -0.029864 1.943728 -0.502245
vn 0.1163 0.8795 0.4614
vn 0.1465 0.2078 0.9672
vn 0.8284 0.0800 0.5543
vn 0.9904 -0.0990 -0.0964
vn 0.6536 -0.2590 -0.7111
vn -0.1485 -0.3005 -0.9421
vn -0.8284 -0.1665 -0.5349
vn -0.9934 0.0158 0.1134
vn -0.4106 0.8491 0.3323
vn -0.5565 0.6412 -0.5284
vn 0.7194 0.6602 -0.2159
vn -0.0760 0.5925 -0.8020
vn 0.5797 0.7833 0.2245
vn -0.6722 0.7372 -0.0680
vn 0.4767 0.5931 -0.6489
vn 0.0307 0.9796 -0.1987
vn -0.6593 0.1702 0.7324
vn -0.5901 0.5693 0.5725
vn -0.9811 0.1933 0.0021
vn -0.7677 -0.3473 -0.5386
vn -0.1077 -0.6009 -0.7920
vn 0.5821 -0.4541 -0.6745
vn 0.9799 0.0772 -0.1840
vn 0.7357 0.5291 0.4229
vn 0.1018 0.6402 0.7614
vn -0.6596 0.1571 0.7350
vn -0.9933 0.0037 0.1158
vn -0.8278 -0.1789 -0.5317
vn -0.1487 -0.3137 -0.9378
vn 0.6524 -0.2716 -0.7075
vn 0.9894 -0.1110 -0.0939
vn 0.8279 0.0674 0.5568
vn 0.1461 0.1941 0.9701
vn -0.9884 0.0333 -0.1485
vn -0.7371 -0.6677 -0.1045
vn -0.0371 -0.9992 -0.0162
vn 0.6652 -0.7412 0.0904
vn 0.9897 -0.0597 0.1300
vn 0.7539 0.6557 -0.0414
vn 0.0518 0.9847 -0.1665
vn -0.5750 0.7964 0.1874
vn -0.9839 -0.0289 0.1764
vn -0.7209 -0.6853 -0.1035
vn -0.0713 -0.9715 -0.2261
vn 0.5480 -0.8231 -0.1489
vn 0.9788 -0.1902 0.0765
vn 0.7265 0.6784 0.1092
vn 0.0483 0.9988 -0.0092
vn -0.0482 0.0090 0.9988
vn -0.0609 -0.7182 0.6931
vn 0.5119 0.4966 0.7009
vn -0.7627 0.0320 0.6460
vn 0.4741 -0.5228 0.7085
vn -0.5736 -0.4806 0.6633
vn 0.7061 -0.0201 0.7078
vn -0.0056 0.7297 0.6838
vn -0.5352 0.5301 0.6577
vn -0.6522 0.7391 -0.1685
vt 0.000000 1.000000
vt 0.125000 1.000000
vt 0.125000 0.875000
vt 0.000000 0.875000
vt 0.250000 0.875000
vt 0.250000 1.000000
vt 0.375000 0.875000
vt 0.375000 1.000000
vt 0.500000 0.875000
vt 0.500000 1.000000
vt 0.625000 0.875000
vt 0.625000 1.000000
vt 0.750000 0.875000
vt 0.750000 1.000000
vt 0.875000 0.875000
vt 0.875000 1.000000
vt 1.000000 1.000000
vt 1.000000 0.875000
vt 1.000000 0.500000
vt 1.000000 0.750000
vt 0.875000 0.750000
vt 0.875000 0.500000
vt 0.750000 0.750000
vt 0.750000 0.500000
vt 0.625000 0.750000
vt 0.625000 0.500000
vt 0.500000 0.750000
vt 0.500000 0.500000
vt 0.375000 0.750000
vt 0.375000 0.500000
vt 0.250000 0.750000
vt 0.250000 0.500000
vt 0.125000 0.750000
vt 0.125000 0.500000
vt 0.000000 0.750000
vt 0.000000 0.500000
s 0
f 122/98/101 136/99/101 144/99/101 137/98/101
f 160/100/102 136/99/102 122/98/102 153/101/102
f 159/102/103 134/103/103 136/99/103 160/100/103
f 158/104/104 132/105/104 134/103/104 159/102/104
f 157/106/105 130/107/105 132/105/105 158/104/105
f 156/108/106 128/109/106 130/107/106 157/106/106
f 155/110/107 126/111/107 128/109/107 156/108/107
f 154/112/108 124/113/108 126/111/108 155/110/108
f 124/113/109 122/114/109 137/114/109 138/113/109
f 128/109/110 126/111/110 139/111/110 140/109/110
f 134/103/111 132/105/111 142/105/111 143/103/111
f 130/107/112 128/109/112 140/109/112 141/107/112
f 136/99/113 134/103/113 143/103/113 144/99/113
f 126/111/114 124/113/114 138/113/114 139/111/114
f 132/105/115 130/107/115 141/107/115 142/105/115
f 138/113/116 137/98/116 144/99/116 143/103/116 142/105/116 141/107/116 140/109/116 139/111/116
f 153/115/117 122/114/117 124/113/117 154/112/117
f 121/116/118 145/117/118 146/118/118 123/119/118
f 123/119/119 146/118/119 147/120/119 125/121/119
f 125/121/120 147/120/120 148/122/120 127/123/120
f 127/123/121 148/122/121 149/124/121 129/125/121
f 129/125/122 149/124/122 150/126/122 131/127/122
f 131/127/123 150/126/123 151/128/123 133/129/123
f 133/129/124 151/128/124 152/130/124 135/131/124
f 135/131/125 152/130/125 145/132/125 121/133/125
f 145/117/126 153/115/126 154/112/126 146/118/126
f 146/118/127 154/112/127 155/110/127 147/120/127
f 147/120/128 155/110/128 156/108/128 148/122/128
f 148/122/129 156/108/129 157/106/129 149/124/129
f 149/124/130 157/106/130 158/104/130 150/126/130
f 150/126/131 158/104/131 159/102/131 151/128/131
f 151/128/132 159/102/132 160/100/132 152/130/132
f 152/130/133 160/100/133 153/101/133 145/132/133
f 178/103/134 177/99/134 161/130/134 162/128/134
f 179/105/135 178/103/135 162/128/135 163/126/135
f 180/107/136 179/105/136 163/126/136 164/124/136
f 181/109/137 180/107/137 164/124/137 165/122/137
f 182/111/138 181/109/138 165/122/138 166/120/138
f 183/113/139 182/111/139 166/120/139 167/118/139
f 168/117/140 184/114/140 183/113/140 167/118/140
f 123/131/141 161/130/141 168/132/141 121/133/141
f 125/129/142 162/128/142 161/130/142 123/131/142
f 127/127/143 163/126/143 162/128/143 125/129/143
f 129/125/144 164/124/144 163/126/144 127/127/144
f 131/123/145 165/122/145 164/124/145 129/125/145
f 133/121/146 166/120/146 165/122/146 131/123/146
f 135/119/147 167/118/147 166/120/147 133/121/147
f 121/116/148 168/117/148 167/118/148 135/119/148
f 175/113/149 176/98/149 169/99/149 170/103/149 171/105/149 172/107/149 173/109/149 174/111/149
f 179/105/150 180/107/150 172/107/150 171/105/150
f 182/111/151 183/113/151 175/113/151 174/111/151
f 177/99/152 178/103/152 170/103/152 169/99/152
f 180/107/153 181/109/153 173/109/153 172/107/153
f 178/103/154 179/105/154 171/105/154 170/103/154
f 181/109/155 182/111/155 174/111/155 173/109/155
f 183/113/156 184/114/156 176/114/156 175/113/156
f 184/98/157 177/99/157 169/99/157 176/98/157
f 177/99/158 184/98/158 168/132/158 161/130/158
