# Blender 5.0.0
# www.blender.org
mtllib rock4.mtl
o rock4
v 0.080569 -0.463228 0.286743
v -0.398897 -0.248757 0.515736
v -0.185282 0.018856 0.631635
v -0.100385 0.321775 0.406430
v -0.043333 0.495113 0.097644
v 0.489724 -0.440325 0.136391
v 0.565058 -0.386174 0.610589
v 0.435694 -0.021756 0.738939
v 0.169553 0.364143 0.363125
v 0.466811 -0.358576 -0.190383
v 0.877408 -0.327788 0.077414
v 0.685071 0.138524 0.025743
v 0.218659 0.509821 -0.024447
v -0.429281 -0.473720 -0.397159
v -0.394041 -0.146818 -0.778612
v -0.450168 0.175465 -0.730937
v -0.319335 0.461932 -0.255096
v -0.352487 -0.502908 0.025786
v -0.828574 -0.096481 -0.150975
v -0.808140 0.070448 0.003835
v -0.583301 0.380197 0.098535
v -0.050338 0.485877 -0.139772
v 0.311747 0.437294 -0.377125
v 0.577719 0.008831 -0.568328
v 0.065548 -0.401745 -0.405712
vn -0.0558 0.6480 0.7596
vn -0.0657 -0.9441 0.3229
vn -0.0603 0.8751 0.4801
vn -0.1563 -0.3378 0.9281
vn 0.1170 0.9247 0.3624
vn 0.8524 0.2900 0.4351
vn 0.5614 0.7454 0.3594
vn 0.1204 -0.9861 -0.1144
vn -0.0730 0.9967 -0.0366
vn 0.2039 0.3752 -0.9042
vn -0.0496 0.8977 -0.4378
vn 0.4059 -0.7120 -0.5730
vn -0.2075 0.9757 0.0706
vn -0.8581 0.1416 -0.4935
vn -0.6857 0.6734 -0.2763
vn -0.7407 -0.6277 -0.2396
vn -0.1847 0.8712 0.4549
vn -0.7740 0.0226 0.6328
vn -0.5569 0.4326 0.7090
vn -0.1838 -0.8796 0.4388
vn 0.2689 -0.9609 -0.0661
vn 0.2023 -0.6742 -0.7103
vn 0.4386 0.8960 -0.0685
vn 0.8437 0.4720 -0.2555
vn -0.6814 -0.6741 0.2851
vt 0.600000 0.200000
vt 0.600000 0.400000
vt 0.400000 0.400000
vt 0.400000 0.200000
vt 0.600000 0.600000
vt 0.600000 0.800000
vt 0.400000 0.800000
vt 0.400000 0.600000
vt 0.500000 0.000000
vt 0.300000 0.000000
vt 0.200000 0.200000
vt 0.200000 0.600000
vt 0.200000 0.400000
vt 0.800000 0.800000
vt 0.000000 0.800000
vt 0.100000 0.800000
vt 0.200000 0.800000
vt 0.100000 0.000000
vt 0.100000 0.200000
vt 0.000000 0.200000
vt 0.100000 0.400000
vt 0.100000 0.600000
vt 0.000000 0.600000
vt 0.000000 0.400000
vt 0.900000 0.000000
vt 1.000000 0.200000
vt 0.800000 0.200000
vt 1.000000 0.400000
vt 1.000000 0.600000
vt 0.800000 0.600000
vt 0.800000 0.400000
vt 1.000000 0.800000
vt 0.700000 0.000000
s 0
f 4/1/1 3/2/1 8/3/1 9/4/1
f 2/5/2 1/6/2 6/7/2 7/8/2
f 5/9/3 4/1/3 9/4/3
f 3/2/4 2/5/4 7/8/4 8/3/4
f 5/10/5 9/4/5 13/11/5
f 8/3/6 7/8/6 11/12/6 12/13/6
f 9/4/7 8/3/7 12/13/7 13/11/7
f 6/7/8 1/6/8 18/14/8 14/15/8 25/16/8 10/17/8
f 5/18/9 13/11/9 22/19/9 17/20/9
f 23/21/10 24/22/10 15/23/10 16/24/10
f 22/19/11 23/21/11 16/24/11 17/20/11
f 10/17/12 25/16/12 24/22/12 11/12/12
f 5/25/13 17/26/13 21/27/13
f 16/28/14 15/29/14 19/30/14 20/31/14
f 17/26/15 16/28/15 20/31/15 21/27/15
f 15/29/16 14/32/16 18/14/16 19/30/16
f 5/33/17 21/27/17 4/1/17
f 20/31/18 19/30/18 2/5/18 3/2/18
f 21/27/19 20/31/19 3/2/19 4/1/19
f 2/5/20 18/14/20 1/6/20
f 7/8/21 6/7/21 10/17/21 11/12/21
f 14/15/22 15/23/22 24/22/22 25/16/22
f 13/11/23 12/13/23 23/21/23 22/19/23
f 12/13/24 11/12/24 24/22/24 23/21/24
f 18/14/25 2/5/25 19/30/25
